<?xml version="1.0" encoding="UTF-8" standalone="no"?><!DOCTYPE svg PUBLIC "-//W3C//DTD SVG 1.1//EN" "http://www.w3.org/Graphics/SVG/1.1/DTD/svg11.dtd"><svg width="100%" height="100%" viewBox="0 0 120 120" version="1.1" xmlns="http://www.w3.org/2000/svg" xmlns:xlink="http://www.w3.org/1999/xlink" xml:space="preserve" xmlns:serif="http://www.serif.com/" style="fill-rule:evenodd;clip-rule:evenodd;stroke-linejoin:round;stroke-miterlimit:2;"><path d="M122.72,-2.153l0,125.475l-125.502,0l0,-125.475l125.502,0Zm-62.72,15.826c25.569,0 46.327,20.758 46.327,46.327c0,25.569 -20.758,46.327 -46.327,46.327c-25.569,0 -46.327,-20.758 -46.327,-46.327c0,-25.569 20.758,-46.327 46.327,-46.327Z" style="fill:#1282cd;"/><path d="M75.837,16.455c19.975,5.978 34.55,24.51 34.55,46.419c0,26.737 -21.707,48.444 -48.444,48.444c-26.736,0 -48.443,-21.707 -48.443,-48.444c0,-1.486 0.067,-2.956 0.198,-4.408c-0.017,0.509 -0.025,1.021 -0.025,1.534c0,25.569 20.758,46.327 46.327,46.327c25.569,0 46.327,-20.758 46.327,-46.327c0,-20.007 -12.71,-37.069 -30.49,-43.545Z" style="fill:#10557f;"/><path d="M59.419,10.975c26.737,0 48.444,21.707 48.444,48.444c0,26.737 -21.707,48.444 -48.444,48.444c-26.737,0 -48.444,-21.707 -48.444,-48.444c0,-26.737 21.707,-48.444 48.444,-48.444Zm0.581,2.698c25.569,0 46.327,20.758 46.327,46.327c0,25.569 -20.758,46.327 -46.327,46.327c-25.569,0 -46.327,-20.758 -46.327,-46.327c0,-25.569 20.758,-46.327 46.327,-46.327Z" style="fill:#78c1ef;"/><path d="M60,11.556c26.737,0 48.444,21.707 48.444,48.444c0,26.737 -21.707,48.444 -48.444,48.444c-26.737,0 -48.444,-21.707 -48.444,-48.444c0,-26.737 21.707,-48.444 48.444,-48.444Zm0,2.117c25.569,0 46.327,20.758 46.327,46.327c0,25.569 -20.758,46.327 -46.327,46.327c-25.569,0 -46.327,-20.758 -46.327,-46.327c0,-25.569 20.758,-46.327 46.327,-46.327Z" style="fill:#44a6e8;"/><path d="M60.374,106.326c-0.125,0.001 -0.249,0.001 -0.374,0.001c-25.569,0 -46.327,-20.758 -46.327,-46.327c0,-25.569 20.758,-46.327 46.327,-46.327c25.569,0 46.327,20.758 46.327,46.327c0,0.607 -0.012,1.212 -0.035,1.813c-0.945,-22.853 -20.987,-41.134 -45.537,-41.134c-25.152,0 -45.572,19.188 -45.572,42.824c0,23.516 20.214,42.63 45.191,42.823Z" style="fill:#10557f;"/></svg>